<svg width="160" height="40" viewBox="0 0 160 40" fill="none" xmlns="http://www.w3.org/2000/svg">
<path fill-rule="evenodd" clip-rule="evenodd" d="M8.55273 3.59787C7.12207 4.59823 5.82837 5.78098 4.70532 7.1124C9.29462 6.68633 15.1252 7.38205 21.8944 10.7667C29.123 14.3809 34.9438 14.5031 38.9948 13.7217C38.6272 12.6088 38.1644 11.5392 37.6163 10.5224C32.979 11.0115 27.034 10.3641 20.1056 6.89998C15.706 4.70018 11.8278 3.79401 8.55273 3.59787ZM34.9074 6.66665C31.2453 2.575 25.9234 0 20 0C18.2605 0 16.5727 0.222107 14.9637 0.63948C17.1429 1.23409 19.4579 2.10399 21.8944 3.32227C26.967 5.85853 31.3464 6.67516 34.9074 6.66665ZM39.8609 17.6281C34.9669 18.5945 28.2088 18.396 20.1056 14.3444C12.53 10.5566 6.50043 10.6043 2.4339 11.508C2.224 11.5546 2.01904 11.6036 1.81903 11.6546C1.28662 12.8125 0.861634 14.0301 0.556702 15.2945C0.882386 15.2075 1.21893 15.1248 1.56616 15.0476C6.49957 13.9513 13.4701 13.9989 21.8944 18.2111C29.4701 21.9989 35.4996 21.9512 39.5662 21.0475C39.7055 21.0166 39.8428 20.9846 39.9778 20.9516C39.9926 20.6363 40 20.319 40 20C40 19.1975 39.9528 18.406 39.8609 17.6281ZM39.3248 25.1723C34.4783 26.0196 27.917 25.6944 20.1056 21.7888C12.53 18.001 6.50043 18.0487 2.4339 18.9524C1.53125 19.1529 0.719239 19.3972 0.00293 19.6551C0.000977 19.7698 0 19.8848 0 20C0 31.0457 8.95429 40 20 40C29.2571 40 37.0453 33.7109 39.3248 25.1723Z" fill="url(#paint0_linear_1068_55)"/>
<path d="M64.712 22.76C64.712 23.736 64.592 24.62 64.352 25.412C64.112 26.196 63.748 26.872 63.26 27.44C62.78 28 62.176 28.432 61.448 28.736C60.72 29.04 59.872 29.192 58.904 29.192C58.464 29.192 58.028 29.164 57.596 29.108C57.172 29.06 56.724 28.98 56.252 28.868C56.284 28.516 56.316 28.164 56.348 27.812C56.38 27.46 56.412 27.108 56.444 26.756C56.468 26.564 56.544 26.412 56.672 26.3C56.8 26.18 56.984 26.12 57.224 26.12C57.36 26.12 57.532 26.144 57.74 26.192C57.956 26.24 58.22 26.264 58.532 26.264C58.964 26.264 59.34 26.204 59.66 26.084C59.98 25.964 60.248 25.768 60.464 25.496C60.68 25.224 60.84 24.872 60.944 24.44C61.056 24 61.112 23.468 61.112 22.844V11.588H64.712V22.76ZM72.9324 16.436C73.8604 16.436 74.7044 16.584 75.4644 16.88C76.2244 17.176 76.8764 17.6 77.4204 18.152C77.9644 18.696 78.3844 19.36 78.6804 20.144C78.9764 20.928 79.1244 21.812 79.1244 22.796C79.1244 23.78 78.9764 24.668 78.6804 25.46C78.3844 26.244 77.9644 26.912 77.4204 27.464C76.8764 28.016 76.2244 28.44 75.4644 28.736C74.7044 29.032 73.8604 29.18 72.9324 29.18C71.9964 29.18 71.1444 29.032 70.3764 28.736C69.6164 28.44 68.9644 28.016 68.4204 27.464C67.8764 26.912 67.4524 26.244 67.1484 25.46C66.8524 24.668 66.7044 23.78 66.7044 22.796C66.7044 21.812 66.8524 20.928 67.1484 20.144C67.4524 19.36 67.8764 18.696 68.4204 18.152C68.9644 17.6 69.6164 17.176 70.3764 16.88C71.1444 16.584 71.9964 16.436 72.9324 16.436ZM72.9324 26.696C73.8764 26.696 74.5764 26.372 75.0324 25.724C75.4884 25.068 75.7164 24.096 75.7164 22.808C75.7164 21.528 75.4884 20.564 75.0324 19.916C74.5764 19.26 73.8764 18.932 72.9324 18.932C71.9644 18.932 71.2524 19.26 70.7964 19.916C70.3404 20.564 70.1124 21.528 70.1124 22.808C70.1124 24.096 70.3404 25.068 70.7964 25.724C71.2524 26.372 71.9644 26.696 72.9324 26.696ZM84.5159 25.736C84.8279 26.096 85.1639 26.348 85.5239 26.492C85.8919 26.636 86.2719 26.708 86.6639 26.708C87.0719 26.708 87.4399 26.636 87.7679 26.492C88.1039 26.34 88.3919 26.104 88.6319 25.784C88.8719 25.456 89.0559 25.032 89.1839 24.512C89.3119 23.992 89.3759 23.364 89.3759 22.628C89.3759 21.972 89.3239 21.416 89.2199 20.96C89.1159 20.496 88.9599 20.116 88.7519 19.82C88.5519 19.524 88.3039 19.308 88.0079 19.172C87.7119 19.036 87.3679 18.968 86.9759 18.968C86.4559 18.968 86.0039 19.084 85.6199 19.316C85.2439 19.54 84.8759 19.872 84.5159 20.312V25.736ZM84.5159 18.056C85.0039 17.568 85.5439 17.176 86.1359 16.88C86.7279 16.584 87.3919 16.436 88.1279 16.436C88.8399 16.436 89.4799 16.58 90.0479 16.868C90.6239 17.148 91.1119 17.552 91.5119 18.08C91.9199 18.608 92.2319 19.248 92.4479 20C92.6719 20.744 92.7839 21.58 92.7839 22.508C92.7839 23.508 92.6559 24.42 92.3999 25.244C92.1519 26.06 91.7959 26.76 91.3319 27.344C90.8679 27.928 90.3119 28.38 89.6639 28.7C89.0239 29.02 88.3079 29.18 87.5159 29.18C87.1319 29.18 86.7879 29.14 86.4839 29.06C86.1799 28.988 85.8999 28.884 85.6439 28.748C85.3879 28.612 85.1519 28.452 84.9359 28.268C84.7199 28.076 84.5159 27.864 84.3239 27.632L84.1919 28.376C84.1359 28.608 84.0439 28.772 83.9159 28.868C83.7879 28.956 83.6159 29 83.3999 29H81.2039V11.108H84.5159V18.056ZM105.351 26.072V29H95.0193V11.588H98.6193V26.072H105.351ZM110.51 16.628V29H107.198V16.628H110.51ZM110.906 13.112C110.906 13.392 110.85 13.652 110.738 13.892C110.626 14.132 110.474 14.344 110.282 14.528C110.098 14.712 109.878 14.856 109.622 14.96C109.374 15.064 109.106 15.116 108.818 15.116C108.546 15.116 108.286 15.064 108.038 14.96C107.798 14.856 107.586 14.712 107.402 14.528C107.218 14.344 107.07 14.132 106.958 13.892C106.854 13.652 106.802 13.392 106.802 13.112C106.802 12.832 106.854 12.572 106.958 12.332C107.07 12.084 107.218 11.868 107.402 11.684C107.586 11.5 107.798 11.356 108.038 11.252C108.286 11.148 108.546 11.096 108.818 11.096C109.106 11.096 109.374 11.148 109.622 11.252C109.878 11.356 110.098 11.5 110.282 11.684C110.474 11.868 110.626 12.084 110.738 12.332C110.85 12.572 110.906 12.832 110.906 13.112ZM116.409 18.068C116.657 17.828 116.913 17.608 117.177 17.408C117.449 17.208 117.733 17.036 118.029 16.892C118.333 16.748 118.657 16.636 119.001 16.556C119.353 16.476 119.733 16.436 120.141 16.436C120.813 16.436 121.409 16.552 121.929 16.784C122.449 17.016 122.885 17.34 123.237 17.756C123.597 18.172 123.865 18.668 124.041 19.244C124.225 19.82 124.317 20.452 124.317 21.14V29H121.017V21.14C121.017 20.452 120.857 19.92 120.537 19.544C120.217 19.16 119.745 18.968 119.121 18.968C118.657 18.968 118.221 19.068 117.813 19.268C117.405 19.468 117.017 19.748 116.649 20.108V29H113.337V16.628H115.377C115.793 16.628 116.069 16.82 116.205 17.204L116.409 18.068ZM130.266 11.108V21.26H130.818C131.026 21.26 131.19 21.232 131.31 21.176C131.43 21.112 131.55 21 131.67 20.84L134.406 17.192C134.542 17.008 134.694 16.868 134.862 16.772C135.038 16.676 135.258 16.628 135.522 16.628H138.546L134.994 21.14C134.714 21.516 134.39 21.812 134.022 22.028C134.206 22.156 134.366 22.304 134.502 22.472C134.638 22.64 134.77 22.828 134.898 23.036L138.726 29H135.75C135.494 29 135.274 28.96 135.09 28.88C134.906 28.792 134.754 28.64 134.634 28.424L131.85 23.876C131.738 23.684 131.622 23.56 131.502 23.504C131.382 23.448 131.202 23.42 130.962 23.42H130.266V29H126.954V11.108H130.266ZM147.294 21.356C147.294 21.012 147.246 20.684 147.15 20.372C147.062 20.06 146.918 19.784 146.718 19.544C146.518 19.304 146.266 19.116 145.962 18.98C145.658 18.836 145.294 18.764 144.87 18.764C144.078 18.764 143.458 18.988 143.01 19.436C142.562 19.884 142.27 20.524 142.134 21.356H147.294ZM142.086 23.324C142.19 24.484 142.518 25.332 143.07 25.868C143.63 26.404 144.358 26.672 145.254 26.672C145.71 26.672 146.102 26.62 146.43 26.516C146.766 26.404 147.058 26.284 147.306 26.156C147.562 26.02 147.79 25.9 147.99 25.796C148.198 25.684 148.402 25.628 148.602 25.628C148.858 25.628 149.058 25.724 149.202 25.916L150.162 27.116C149.81 27.524 149.422 27.864 148.998 28.136C148.574 28.4 148.134 28.612 147.678 28.772C147.222 28.924 146.762 29.028 146.298 29.084C145.834 29.148 145.386 29.18 144.954 29.18C144.09 29.18 143.282 29.04 142.53 28.76C141.786 28.472 141.134 28.052 140.574 27.5C140.022 26.94 139.586 26.248 139.266 25.424C138.946 24.6 138.786 23.644 138.786 22.556C138.786 21.716 138.922 20.924 139.194 20.18C139.474 19.436 139.874 18.788 140.394 18.236C140.914 17.684 141.546 17.248 142.29 16.928C143.034 16.6 143.874 16.436 144.81 16.436C145.602 16.436 146.33 16.564 146.994 16.82C147.666 17.068 148.242 17.432 148.722 17.912C149.21 18.392 149.586 18.984 149.85 19.688C150.122 20.384 150.258 21.18 150.258 22.076C150.258 22.324 150.246 22.528 150.222 22.688C150.198 22.848 150.158 22.976 150.102 23.072C150.046 23.168 149.97 23.236 149.874 23.276C149.778 23.308 149.654 23.324 149.502 23.324H142.086ZM155.421 18.668C155.813 17.964 156.265 17.408 156.777 17C157.289 16.592 157.889 16.388 158.577 16.388C159.137 16.388 159.593 16.52 159.945 16.784L159.729 19.232C159.689 19.392 159.625 19.504 159.537 19.568C159.457 19.624 159.345 19.652 159.201 19.652C159.073 19.652 158.889 19.636 158.649 19.604C158.409 19.564 158.185 19.544 157.977 19.544C157.673 19.544 157.401 19.588 157.161 19.676C156.929 19.764 156.721 19.888 156.537 20.048C156.353 20.208 156.185 20.404 156.033 20.636C155.889 20.868 155.753 21.132 155.625 21.428V29H152.313V16.628H154.269C154.605 16.628 154.837 16.688 154.965 16.808C155.093 16.928 155.185 17.136 155.241 17.432L155.421 18.668Z" fill="#191825"/>
<defs>
<linearGradient id="paint0_linear_1068_55" x1="36" y1="43.2" x2="-3.73321" y2="35.5931" gradientUnits="userSpaceOnUse">
<stop stop-color="#5D50C6"/>
<stop offset="1" stop-color="#F85E9F"/>
</linearGradient>
</defs>
</svg>
