<svg width="148" height="41" viewBox="0 0 148 41" fill="none" xmlns="http://www.w3.org/2000/svg">
<path fill-rule="evenodd" clip-rule="evenodd" d="M8.55273 4.09787C7.12207 5.09823 5.82837 6.28098 4.70532 7.6124C9.29462 7.18633 15.1252 7.88204 21.8944 11.2667C29.123 14.8809 34.9438 15.0031 38.9948 14.2217C38.6272 13.1088 38.1644 12.0392 37.6163 11.0224C32.979 11.5115 27.034 10.8641 20.1056 7.39998C15.706 5.20018 11.8278 4.29401 8.55273 4.09787ZM34.9074 7.16665C31.2453 3.075 25.9234 0.5 20 0.5C18.2605 0.5 16.5727 0.722107 14.9637 1.13948C17.1429 1.73409 19.4579 2.60399 21.8944 3.82227C26.967 6.35853 31.3464 7.17516 34.9074 7.16665ZM39.8609 18.1281C34.9669 19.0945 28.2088 18.896 20.1056 14.8444C12.53 11.0566 6.50043 11.1043 2.4339 12.008C2.224 12.0546 2.01904 12.1036 1.81903 12.1546C1.28662 13.3125 0.861634 14.5301 0.556702 15.7945C0.882386 15.7075 1.21893 15.6248 1.56616 15.5476C6.49957 14.4513 13.4701 14.4989 21.8944 18.7111C29.4701 22.4989 35.4996 22.4512 39.5662 21.5475C39.7055 21.5166 39.8428 21.4846 39.9778 21.4516C39.9926 21.1363 40 20.819 40 20.5C40 19.6975 39.9528 18.906 39.8609 18.1281ZM39.3248 25.6723C34.4783 26.5196 27.917 26.1944 20.1056 22.2888C12.53 18.501 6.50043 18.5487 2.4339 19.4524C1.53125 19.6529 0.719239 19.8972 0.00293 20.1551C0.000977 20.2698 0 20.3848 0 20.5C0 31.5457 8.95429 40.5 20 40.5C29.2571 40.5 37.0453 34.2109 39.3248 25.6723Z" fill="url(#paint0_linear_832_821)"/>
<path d="M64.712 23.26C64.712 24.236 64.592 25.12 64.352 25.912C64.112 26.696 63.748 27.372 63.26 27.94C62.78 28.5 62.176 28.932 61.448 29.236C60.72 29.54 59.872 29.692 58.904 29.692C58.464 29.692 58.028 29.664 57.596 29.608C57.172 29.56 56.724 29.48 56.252 29.368C56.284 29.016 56.316 28.664 56.348 28.312C56.38 27.96 56.412 27.608 56.444 27.256C56.468 27.064 56.544 26.912 56.672 26.8C56.8 26.68 56.984 26.62 57.224 26.62C57.36 26.62 57.532 26.644 57.74 26.692C57.956 26.74 58.22 26.764 58.532 26.764C58.964 26.764 59.34 26.704 59.66 26.584C59.98 26.464 60.248 26.268 60.464 25.996C60.68 25.724 60.84 25.372 60.944 24.94C61.056 24.5 61.112 23.968 61.112 23.344V12.088H64.712V23.26ZM72.9324 16.936C73.8604 16.936 74.7044 17.084 75.4644 17.38C76.2244 17.676 76.8764 18.1 77.4204 18.652C77.9644 19.196 78.3844 19.86 78.6804 20.644C78.9764 21.428 79.1244 22.312 79.1244 23.296C79.1244 24.28 78.9764 25.168 78.6804 25.96C78.3844 26.744 77.9644 27.412 77.4204 27.964C76.8764 28.516 76.2244 28.94 75.4644 29.236C74.7044 29.532 73.8604 29.68 72.9324 29.68C71.9964 29.68 71.1444 29.532 70.3764 29.236C69.6164 28.94 68.9644 28.516 68.4204 27.964C67.8764 27.412 67.4524 26.744 67.1484 25.96C66.8524 25.168 66.7044 24.28 66.7044 23.296C66.7044 22.312 66.8524 21.428 67.1484 20.644C67.4524 19.86 67.8764 19.196 68.4204 18.652C68.9644 18.1 69.6164 17.676 70.3764 17.38C71.1444 17.084 71.9964 16.936 72.9324 16.936ZM72.9324 27.196C73.8764 27.196 74.5764 26.872 75.0324 26.224C75.4884 25.568 75.7164 24.596 75.7164 23.308C75.7164 22.028 75.4884 21.064 75.0324 20.416C74.5764 19.76 73.8764 19.432 72.9324 19.432C71.9644 19.432 71.2524 19.76 70.7964 20.416C70.3404 21.064 70.1124 22.028 70.1124 23.308C70.1124 24.596 70.3404 25.568 70.7964 26.224C71.2524 26.872 71.9644 27.196 72.9324 27.196ZM84.5159 26.236C84.8279 26.596 85.1639 26.848 85.5239 26.992C85.8919 27.136 86.2719 27.208 86.6639 27.208C87.0719 27.208 87.4399 27.136 87.7679 26.992C88.1039 26.84 88.3919 26.604 88.6319 26.284C88.8719 25.956 89.0559 25.532 89.1839 25.012C89.3119 24.492 89.3759 23.864 89.3759 23.128C89.3759 22.472 89.3239 21.916 89.2199 21.46C89.1159 20.996 88.9599 20.616 88.7519 20.32C88.5519 20.024 88.3039 19.808 88.0079 19.672C87.7119 19.536 87.3679 19.468 86.9759 19.468C86.4559 19.468 86.0039 19.584 85.6199 19.816C85.2439 20.04 84.8759 20.372 84.5159 20.812V26.236ZM84.5159 18.556C85.0039 18.068 85.5439 17.676 86.1359 17.38C86.7279 17.084 87.3919 16.936 88.1279 16.936C88.8399 16.936 89.4799 17.08 90.0479 17.368C90.6239 17.648 91.1119 18.052 91.5119 18.58C91.9199 19.108 92.2319 19.748 92.4479 20.5C92.6719 21.244 92.7839 22.08 92.7839 23.008C92.7839 24.008 92.6559 24.92 92.3999 25.744C92.1519 26.56 91.7959 27.26 91.3319 27.844C90.8679 28.428 90.3119 28.88 89.6639 29.2C89.0239 29.52 88.3079 29.68 87.5159 29.68C87.1319 29.68 86.7879 29.64 86.4839 29.56C86.1799 29.488 85.8999 29.384 85.6439 29.248C85.3879 29.112 85.1519 28.952 84.9359 28.768C84.7199 28.576 84.5159 28.364 84.3239 28.132L84.1919 28.876C84.1359 29.108 84.0439 29.272 83.9159 29.368C83.7879 29.456 83.6159 29.5 83.3999 29.5H81.2039V11.608H84.5159V18.556ZM105.351 26.572V29.5H95.0193V12.088H98.6193V26.572H105.351ZM110.51 17.128V29.5H107.198V17.128H110.51ZM110.906 13.612C110.906 13.892 110.85 14.152 110.738 14.392C110.626 14.632 110.474 14.844 110.282 15.028C110.098 15.212 109.878 15.356 109.622 15.46C109.374 15.564 109.106 15.616 108.818 15.616C108.546 15.616 108.286 15.564 108.038 15.46C107.798 15.356 107.586 15.212 107.402 15.028C107.218 14.844 107.07 14.632 106.958 14.392C106.854 14.152 106.802 13.892 106.802 13.612C106.802 13.332 106.854 13.072 106.958 12.832C107.07 12.584 107.218 12.368 107.402 12.184C107.586 12 107.798 11.856 108.038 11.752C108.286 11.648 108.546 11.596 108.818 11.596C109.106 11.596 109.374 11.648 109.622 11.752C109.878 11.856 110.098 12 110.282 12.184C110.474 12.368 110.626 12.584 110.738 12.832C110.85 13.072 110.906 13.332 110.906 13.612ZM116.409 18.568C116.657 18.328 116.913 18.108 117.177 17.908C117.449 17.708 117.733 17.536 118.029 17.392C118.333 17.248 118.657 17.136 119.001 17.056C119.353 16.976 119.733 16.936 120.141 16.936C120.813 16.936 121.409 17.052 121.929 17.284C122.449 17.516 122.885 17.84 123.237 18.256C123.597 18.672 123.865 19.168 124.041 19.744C124.225 20.32 124.317 20.952 124.317 21.64V29.5H121.017V21.64C121.017 20.952 120.857 20.42 120.537 20.044C120.217 19.66 119.745 19.468 119.121 19.468C118.657 19.468 118.221 19.568 117.813 19.768C117.405 19.968 117.017 20.248 116.649 20.608V29.5H113.337V17.128H115.377C115.793 17.128 116.069 17.32 116.205 17.704L116.409 18.568ZM130.266 11.608V21.76H130.818C131.026 21.76 131.19 21.732 131.31 21.676C131.43 21.612 131.55 21.5 131.67 21.34L134.406 17.692C134.542 17.508 134.694 17.368 134.862 17.272C135.038 17.176 135.258 17.128 135.522 17.128H138.546L134.994 21.64C134.714 22.016 134.39 22.312 134.022 22.528C134.206 22.656 134.366 22.804 134.502 22.972C134.638 23.14 134.77 23.328 134.898 23.536L138.726 29.5H135.75C135.494 29.5 135.274 29.46 135.09 29.38C134.906 29.292 134.754 29.14 134.634 28.924L131.85 24.376C131.738 24.184 131.622 24.06 131.502 24.004C131.382 23.948 131.202 23.92 130.962 23.92H130.266V29.5H126.954V11.608H130.266ZM143.164 19.168C143.556 18.464 144.008 17.908 144.52 17.5C145.032 17.092 145.632 16.888 146.32 16.888C146.88 16.888 147.336 17.02 147.688 17.284L147.472 19.732C147.432 19.892 147.368 20.004 147.28 20.068C147.2 20.124 147.088 20.152 146.944 20.152C146.816 20.152 146.632 20.136 146.392 20.104C146.152 20.064 145.928 20.044 145.72 20.044C145.416 20.044 145.144 20.088 144.904 20.176C144.672 20.264 144.464 20.388 144.28 20.548C144.096 20.708 143.928 20.904 143.776 21.136C143.632 21.368 143.496 21.632 143.368 21.928V29.5H140.056V17.128H142.012C142.348 17.128 142.58 17.188 142.708 17.308C142.836 17.428 142.928 17.636 142.984 17.932L143.164 19.168Z" fill="#191825"/>
<defs>
<linearGradient id="paint0_linear_832_821" x1="36" y1="43.7" x2="-3.73321" y2="36.0931" gradientUnits="userSpaceOnUse">
<stop stop-color="#5D50C6"/>
<stop offset="1" stop-color="#F85E9F"/>
</linearGradient>
</defs>
</svg>
