<svg width="46" height="46" viewBox="0 0 46 46" fill="none" xmlns="http://www.w3.org/2000/svg">
<path d="M23 32.8572C21.0505 32.8572 19.1447 32.279 17.5237 31.1959C15.9027 30.1128 14.6393 28.5733 13.8932 26.7722C13.1471 24.971 12.9519 22.9891 13.3323 21.077C13.7126 19.1649 14.6514 17.4085 16.03 16.03C17.4085 14.6514 19.1649 13.7126 21.077 13.3323C22.9891 12.9519 24.971 13.1471 26.7722 13.8932C28.5733 14.6393 30.1128 15.9027 31.1959 17.5237C32.279 19.1447 32.8572 21.0505 32.8572 23C32.8541 25.6134 31.8146 28.1188 29.9667 29.9667C28.1188 31.8146 25.6134 32.8541 23 32.8572ZM23 16.4286C21.7003 16.4286 20.4298 16.814 19.3491 17.5361C18.2685 18.2581 17.4262 19.2845 16.9288 20.4852C16.4314 21.686 16.3013 23.0073 16.5548 24.282C16.8084 25.5568 17.4343 26.7277 18.3533 27.6467C19.2723 28.5657 20.4433 29.1916 21.718 29.4452C22.9927 29.6987 24.314 29.5686 25.5148 29.0712C26.7156 28.5738 27.7419 27.7316 28.464 26.6509C29.186 25.5702 29.5714 24.2997 29.5714 23C29.5693 21.2578 28.8762 19.5876 27.6443 18.3557C26.4124 17.1238 24.7422 16.4308 23 16.4286Z" fill="white"/>
<path d="M23 39.4286C20.689 39.4269 18.4043 38.9384 16.2947 37.9949C14.185 37.0515 12.2978 35.6743 10.7558 33.9529L13.2037 31.7614C14.6651 33.3955 16.5122 34.6381 18.5766 35.376C20.6411 36.1139 22.8573 36.3237 25.0235 35.9862C27.1897 35.6487 29.2371 34.7747 30.9792 33.4437C32.7213 32.1127 34.1028 30.3671 34.9979 28.3658C35.8929 26.3645 36.2731 24.171 36.1039 21.9852C35.9346 19.7994 35.2212 17.6907 34.0287 15.851C32.8362 14.0114 31.2024 12.4993 29.2762 11.4524C27.3499 10.4055 25.1924 9.85711 23 9.85715V6.57144C27.3571 6.57144 31.5358 8.3023 34.6168 11.3833C37.6977 14.4642 39.4286 18.6429 39.4286 23C39.4286 27.3571 37.6977 31.5358 34.6168 34.6168C31.5358 37.6977 27.3571 39.4286 23 39.4286Z" fill="white"/>
<path d="M23 46C18.451 46 14.0042 44.6511 10.2219 42.1238C6.43956 39.5965 3.4916 36.0044 1.75078 31.8017C0.00996554 27.599 -0.445511 22.9745 0.441949 18.5129C1.32941 14.0514 3.51995 9.95316 6.73655 6.73655C9.95316 3.51995 14.0514 1.32941 18.5129 0.441949C22.9745 -0.445511 27.599 0.00996554 31.8017 1.75078C36.0044 3.4916 39.5965 6.43956 42.1238 10.2219C44.6511 14.0042 46 18.451 46 23C45.993 29.0979 43.5676 34.9439 39.2558 39.2558C34.9439 43.5676 29.0979 45.993 23 46ZM23 3.28572C19.1009 3.28572 15.2893 4.44195 12.0473 6.60818C8.80534 8.77441 6.27851 11.8534 4.78638 15.4557C3.29426 19.058 2.90385 23.0219 3.66453 26.8461C4.42521 30.6703 6.30281 34.183 9.0599 36.9401C11.817 39.6972 15.3297 41.5748 19.1539 42.3355C22.9781 43.0962 26.942 42.7058 30.5443 41.2136C34.1467 39.7215 37.2256 37.1947 39.3918 33.9527C41.5581 30.7107 42.7143 26.8991 42.7143 23C42.7082 17.7733 40.6292 12.7625 36.9334 9.06663C33.2376 5.3708 28.2267 3.29181 23 3.28572Z" fill="white"/>
</svg>
