<svg width="67" height="67" viewBox="0 0 67 67" fill="none" xmlns="http://www.w3.org/2000/svg">
<path d="M30.7083 8.87748V58.1225C30.7083 59.9091 29.0612 61.2491 27.3303 60.8583C14.8516 58.0666 5.58325 46.8721 5.58325 33.5C5.58325 20.1279 14.8516 8.93332 27.3303 6.14165C27.7381 6.05301 28.1605 6.05708 28.5664 6.15357C28.9724 6.25005 29.3515 6.43648 29.6757 6.69909C30 6.9617 30.2611 7.29379 30.4398 7.67083C30.6185 8.04787 30.7102 8.46024 30.7083 8.87748ZM36.3753 8.87748V27.8887C36.3753 29.4241 37.6316 30.6804 39.167 30.6804H58.1224C59.9091 30.6804 61.2491 29.0333 60.8582 27.2746C58.4853 16.7779 50.2499 8.51457 39.7812 6.14165C38.0224 5.75082 36.3753 7.09082 36.3753 8.87748ZM36.3753 39.1112V58.1225C36.3753 59.9091 38.0224 61.2491 39.7812 60.8583C50.2778 58.4854 58.5132 50.1941 60.8862 39.6975C61.277 37.9666 59.9091 36.2916 58.1503 36.2916H39.1949C37.6316 36.3196 36.3753 37.5758 36.3753 39.1112Z" fill="white"/>
</svg>
