<?xml version="1.0" standalone="no"?>
<!DOCTYPE svg PUBLIC "-//W3C//DTD SVG 20010904//EN"
 "http://www.w3.org/TR/2001/REC-SVG-20010904/DTD/svg10.dtd">
<svg version="1.0" xmlns="http://www.w3.org/2000/svg"
 width="400.000000pt" height="400.000000pt" viewBox="0 0 400.000000 400.000000"
 preserveAspectRatio="xMidYMid meet">
<metadata>
Created by potrace 1.14, written by Peter Selinger 2001-2017
</metadata>
<g transform="translate(0.000000,400.000000) scale(0.100000,-0.100000)"
fill="#000000" stroke="none">
<path d="M1829 3996 c-2 -2 -29 -6 -59 -9 -67 -8 -213 -35 -242 -46 -18 -6 -8
-12 53 -30 180 -53 373 -130 612 -245 172 -83 391 -172 517 -210 85 -25 238
-65 275 -71 189 -34 298 -46 433 -50 l72 -2 -22 26 c-13 14 -32 34 -43 44 -11
10 -45 42 -75 71 -161 152 -397 301 -610 384 -79 31 -193 70 -226 77 -135 29
-218 45 -259 50 -52 7 -420 16 -426 11z"/>
<path d="M830 3623 c-76 -51 -208 -169 -311 -279 l-46 -49 246 -1 c180 0 275
-5 356 -17 144 -22 158 -25 240 -43 39 -8 79 -16 90 -18 39 -8 202 -56 300
-89 139 -47 294 -112 470 -197 285 -137 477 -208 711 -265 230 -56 396 -75
629 -70 110 1 218 6 240 9 22 3 56 9 75 11 72 11 71 9 50 69 -27 79 -102 239
-117 253 -9 7 -33 9 -66 5 -29 -3 -126 -6 -217 -6 -195 0 -293 9 -470 40 -47
8 -98 17 -113 19 -52 8 -291 74 -392 108 -153 52 -285 107 -502 210 -109 52
-245 112 -303 135 -258 100 -543 168 -785 187 -45 3 -66 0 -85 -12z"/>
<path d="M549 2896 c-2 -2 -38 -7 -79 -10 -75 -7 -266 -42 -283 -53 -5 -3 -18
-26 -29 -52 -25 -58 -98 -277 -98 -295 0 -11 8 -12 43 -4 23 5 50 11 60 13 10
2 26 6 35 9 18 6 48 11 127 22 28 3 59 8 70 10 89 17 407 23 548 11 413 -36
769 -142 1262 -375 213 -100 317 -143 484 -196 108 -35 273 -77 351 -90 335
-55 572 -55 874 1 l89 16 -6 158 c-3 87 -8 162 -11 167 -3 5 -38 3 -78 -4
-251 -43 -563 -44 -838 -4 -339 50 -708 171 -1068 349 -231 115 -555 234 -722
265 -14 2 -56 11 -95 20 -38 8 -97 18 -130 21 -33 4 -69 9 -80 12 -24 6 -420
14 -426 9z"/>
<path d="M608 2155 c-2 -2 -41 -5 -88 -9 -142 -10 -311 -44 -464 -92 l-58 -19
6 -130 c7 -136 28 -283 57 -400 64 -255 198 -525 363 -735 246 -312 558 -534
934 -664 57 -20 113 -38 125 -40 12 -2 45 -10 72 -16 67 -15 146 -29 225 -38
128 -14 476 -6 531 12 8 3 32 7 54 10 68 9 226 52 330 91 253 94 497 247 684
428 130 127 268 298 339 422 81 141 181 373 206 478 l6 27 -52 -6 c-29 -4 -55
-8 -59 -10 -26 -15 -425 -23 -564 -10 -86 7 -90 8 -240 31 -308 49 -630 156
-984 326 -90 44 -165 79 -167 79 -2 0 -27 11 -56 25 -97 45 -407 150 -503 170
-11 2 -45 9 -75 14 -30 6 -66 13 -80 16 -33 7 -141 22 -211 30 -54 6 -326 14
-331 10z"/>
</g>
</svg>
